<?xml version="1.0" standalone="no"?>
<!DOCTYPE svg PUBLIC "-//W3C//DTD SVG 20010904//EN"
 "http://www.w3.org/TR/2001/REC-SVG-20010904/DTD/svg10.dtd">
<svg version="1.0" xmlns="http://www.w3.org/2000/svg"
 width="408.000000pt" height="352.000000pt" viewBox="0 0 408.000000 352.000000"
 preserveAspectRatio="xMidYMid meet">

<g transform="translate(0.000000,352.000000) scale(0.100000,-0.100000)"
fill="#000000" stroke="none">
<path d="M1678 3085 c-379 -72 -681 -341 -922 -823 -102 -204 -148 -358 -162
-547 -27 -366 178 -688 478 -751 60 -13 118 -14 328 -9 404 11 438 -1 667
-231 206 -207 283 -244 449 -215 160 28 332 130 484 287 233 241 377 558 410
900 54 580 -315 1079 -962 1303 -205 70 -329 93 -523 97 -119 2 -193 -1 -247
-11z"/>
</g>
</svg>
