<?xml version="1.0" standalone="no"?>
<svg viewBox="0 0 200 200" xmlns="http://www.w3.org/2000/svg">
  <path fill="#FF0066" d="M17.6,-24.3C23.5,-27,29.6,-23.8,31.3,-18.8C33,-13.7,30.3,-6.9,29.4,-0.5C28.6,5.9,29.6,11.8,30.1,20.7C30.7,29.5,30.7,41.3,25.5,48.9C20.4,56.6,10.2,60.1,3.2,54.5C-3.7,48.9,-7.5,34.2,-20.7,31.2C-34,28.3,-56.7,37.1,-59.9,33.8C-63.1,30.6,-46.8,15.3,-37.7,5.3C-28.5,-4.8,-26.6,-9.5,-28.9,-22.2C-31.1,-34.9,-37.5,-55.5,-33.4,-53.9C-29.3,-52.3,-14.7,-28.4,-4.4,-20.7C5.8,-13.1,11.6,-21.7,17.6,-24.3Z" transform="translate(100 100)" />
</svg>
