<?xml version="1.0" standalone="no"?>
<svg viewBox="0 0 200 200" xmlns="http://www.w3.org/2000/svg">
  <path fill="#FF0066" d="M35.3,-72.3C39.1,-58.8,31.1,-36.1,26.8,-22.5C22.5,-8.9,22,-4.4,20.8,-0.7C19.5,3,17.6,6,22.3,20.4C27,34.7,38.4,60.4,35.8,74.2C33.2,88,16.6,89.8,7.2,77.3C-2.1,64.8,-4.2,37.8,-16.6,29.7C-29,21.6,-51.7,32.3,-56.3,30.5C-60.8,28.7,-47.2,14.3,-35.1,7C-23,-0.3,-12.3,-0.7,-11,-8C-9.6,-15.3,-17.5,-29.6,-17.2,-45.1C-16.9,-60.6,-8.5,-77.3,3.6,-83.6C15.7,-89.9,31.4,-85.7,35.3,-72.3Z" transform="translate(100 100)" />
</svg>
